<svg xmlns="http://www.w3.org/2000/svg" xmlns:xlink="http://www.w3.org/1999/xlink" id="Camada_1" x="0px" y="0px" viewBox="0 0 1429 386" style="enable-background:new 0 0 1429 386;" xml:space="preserve"><style type="text/css">	.st0{fill:#012037;}	.st1{fill-rule:evenodd;clip-rule:evenodd;fill:#012037;}</style><g>	<path class="st0" d="M529.25,294.35h-26.1V189.44l-71.29,81.96h-22.33l-71.29-81.96v104.91h-26.1v-150.3h24.22l84.39,99.36  l84.29-99.36h24.22V294.35z"></path>	<path class="st0" d="M726.34,294.35H602.21c-23.06,0-41.72-18.66-41.72-41.71v-66.87c0-22.95,18.66-41.71,41.72-41.71h124.12  c23.06,0,41.72,18.76,41.72,41.71v66.87C768.06,275.7,749.4,294.35,726.34,294.35z M726.34,268.25c8.81,0,15.62-6.81,15.62-15.62  v-66.87c0-8.7-6.82-15.62-15.62-15.62H602.21c-8.81,0-15.62,6.92-15.62,15.62v66.87c0,8.8,6.82,15.62,15.62,15.62H726.34z"></path>	<path class="st0" d="M825.51,294.35h-26.1v-150.3h26.1V294.35z"></path>	<path class="st0" d="M1013.06,294.35H898.48c-23.06,0-41.72-18.66-41.72-41.71v-66.87c0-22.95,18.66-41.71,41.72-41.71h114.58  c23.06,0,41.72,18.76,41.72,41.71v3.56h-26.1v-3.56c0-8.7-6.81-15.62-15.62-15.62H898.48c-8.81,0-15.62,6.92-15.62,15.62v66.87  c0,8.8,6.81,15.62,15.62,15.62h114.58c8.81,0,15.62-6.81,15.62-15.62v-3.46h26.1v3.46C1054.78,275.7,1036.12,294.35,1013.06,294.35  z"></path>	<path class="st0" d="M1087.42,237.85c0-2.31,0-4.52,0-6.65c0-2.13,0-4.47,0-7.03v-13.89c0-2.61,0-5,0-7.15c0-2.17,0-4.4,0-6.71  c1.74,0,3.41,0,5,0c1.59,0,3.16,0,4.73,0c1.57,0,3.18,0,4.83,0c3.19,0,6.03,0.47,8.51,1.39c2.48,0.91,4.56,2.26,6.25,4.04  c1.7,1.76,2.99,3.91,3.86,6.45c0.89,2.54,1.34,5.42,1.34,8.66c0,2.92-0.39,5.65-1.16,8.19c-0.78,2.52-2.02,4.74-3.72,6.65  c-1.69,1.9-3.91,3.38-6.66,4.44c-2.73,1.07-6.06,1.6-9.99,1.6c-1.67,0-3.21,0-4.62,0c-1.42,0-2.8,0-4.16,0  C1090.3,237.85,1088.89,237.85,1087.42,237.85z M1092.68,233.47h7.76c3.95,0,7.1-0.72,9.44-2.15c2.34-1.45,4.03-3.43,5.06-5.93  c1.02-2.52,1.54-5.35,1.54-8.51c0-2.42-0.31-4.62-0.93-6.6c-0.61-1.97-1.53-3.67-2.79-5.08c-1.24-1.41-2.84-2.5-4.8-3.25  c-1.94-0.76-4.23-1.13-6.88-1.13h-8.4c0,1.67,0,3.33,0,5c0,1.65,0,3.46,0,5.43v11.91c0,1.94,0,3.73,0,5.37  C1092.68,230.18,1092.68,231.82,1092.68,233.47z"></path>	<path class="st0" d="M1151.22,237.85c0-2.31,0-4.52,0-6.65c0-2.13,0-4.47,0-7.03v-13.89c0-2.61,0-5,0-7.15c0-2.17,0-4.4,0-6.71  h5.34c0,2.31,0,4.54,0,6.71c0,2.15,0,4.53,0,7.15v13.89c0,2.56,0,4.9,0,7.03c0,2.13,0,4.35,0,6.65H1151.22z"></path>	<path class="st0" d="M1207.89,238.46c-3.6,0-6.78-0.53-9.53-1.6c-2.73-1.08-5.02-2.6-6.88-4.53c-1.86-1.94-3.28-4.2-4.25-6.8  c-0.95-2.61-1.42-5.44-1.42-8.48c0-4.16,0.85-7.85,2.56-11.07c1.72-3.23,4.14-5.76,7.26-7.58c3.14-1.82,6.83-2.73,11.07-2.73  c1.45,0,2.86,0.1,4.21,0.29c1.38,0.19,2.67,0.46,3.87,0.81c1.22,0.33,2.33,0.69,3.34,1.07c1.03,0.39,1.91,0.78,2.64,1.16  l-0.46,5.06c-1.61-0.89-3.17-1.61-4.68-2.15c-1.51-0.56-2.98-0.97-4.41-1.22c-1.44-0.25-2.83-0.38-4.19-0.38  c-2.3,0-4.43,0.38-6.36,1.13c-1.92,0.76-3.59,1.86-5,3.31c-1.41,1.45-2.51,3.21-3.28,5.29c-0.76,2.07-1.14,4.41-1.14,7.03  c0,2.36,0.33,4.57,0.99,6.62c0.68,2.05,1.71,3.85,3.08,5.4c1.4,1.55,3.17,2.76,5.32,3.63c2.15,0.85,4.7,1.28,7.64,1.28  c1.09,0,2.17-0.05,3.25-0.15c1.09-0.12,2.15-0.29,3.2-0.52c1.07-0.25,2.11-0.56,3.14-0.93c1.03-0.39,2.02-0.84,2.99-1.37l0.61,4.94  c-0.66,0.31-1.48,0.61-2.47,0.9c-0.97,0.29-2.05,0.56-3.25,0.81c-1.2,0.23-2.47,0.42-3.81,0.55  C1210.61,238.4,1209.27,238.46,1207.89,238.46z M1216.49,236.08c0-2.05,0-3.84,0-5.37c0-1.53,0-3.06,0-4.59c0-1.82,0-3.43,0-4.82  c0-1.39,0-2.81,0-4.24h4.97c0,1.43,0,2.85,0,4.24c0,1.39,0,3,0,4.82c0,1.53,0,3.06,0,4.59c0,1.51,0,3.27,0,5.29L1216.49,236.08z"></path>	<path class="st0" d="M1251.91,237.85c0-2.31,0-4.52,0-6.65c0-2.13,0-4.47,0-7.03v-13.89c0-2.61,0-5,0-7.15c0-2.17,0-4.4,0-6.71  h5.34c0,2.31,0,4.54,0,6.71c0,2.15,0,4.53,0,7.15v13.89c0,2.56,0,4.9,0,7.03c0,2.13,0,4.35,0,6.65H1251.91z"></path>	<path class="st0" d="M1299.61,237.85c0-2.31,0-4.52,0-6.65c0-2.13,0-4.47,0-7.03v-13.13c0-2.6,0-4.97,0-7.12c0-2.17,0-4.42,0-6.74  l2.09,3.92h-4.91c-2.35,0-4.43,0-6.25,0c-1.8,0-3.52,0-5.14,0v-4.68h33.64v4.68c-1.62,0-3.34,0-5.14,0c-1.8,0-3.88,0-6.25,0h-4.91  l2.12-3.92c0,2.32,0,4.57,0,6.74c0,2.15,0,4.52,0,7.12v13.13c0,2.56,0,4.9,0,7.03c0,2.13,0,4.35,0,6.65H1299.61z"></path>	<path class="st0" d="M1338.41,237.85c0.81-2.23,1.65-4.57,2.53-7.03c0.89-2.46,1.74-4.79,2.55-7l5.14-14.23  c0.92-2.56,1.75-4.86,2.5-6.91c0.76-2.07,1.51-4.15,2.27-6.25h6.92c0.75,2.13,1.5,4.22,2.23,6.28c0.74,2.05,1.56,4.36,2.47,6.91  l5.12,14.26c0.81,2.29,1.64,4.64,2.5,7.06c0.87,2.4,1.7,4.71,2.49,6.91h-5.46c-0.83-2.42-1.69-4.91-2.58-7.47  c-0.88-2.57-1.7-5-2.47-7.26l-7.56-21.96h-0.49l-7.62,21.76c-0.83,2.36-1.69,4.84-2.58,7.44c-0.89,2.58-1.77,5.07-2.65,7.5H1338.41  z M1346.08,227.45l0.46-4.12h20.98l0.38,4.12H1346.08z"></path>	<path class="st0" d="M1403.11,237.85c0-2.31,0-4.52,0-6.65c0-2.13,0-4.47,0-7.03v-13.89c0-2.61,0-5,0-7.15c0-2.17,0-4.4,0-6.71  h5.26c0,2.31,0,4.54,0,6.71c0,2.15,0,4.53,0,7.15v13.07c0,2.56,0,4.9,0,7.03c0,2.13,0,4.35,0,6.65l-1.98-3.86h7.62  c2.21,0,4.15,0,5.84,0c1.7,0,3.27,0,4.7,0c1.46,0,2.94,0,4.45,0v4.68H1403.11z"></path>	<path class="st1" d="M127.24,1.75c-17.89,4.8-30.25,14.31-45.83,35.29C66.89,56.58,66.8,56.68,53.79,67.39  c-21.85,17.98-40.18,45.69-49.4,74.68c-4.17,13.11-4.69,16.58-4.26,28.38c0.42,11.47,1.21,14.95,5.36,23.72  c6.16,13.01,22.81,30,40.99,41.84l12.99,8.46l-1.92,6.31c-1.05,3.47-6.4,15.38-11.87,26.47c-14.26,28.9-17.12,42.61-12.05,57.83  c1.31,3.93,4.5,9.39,7.1,12.13c4.92,5.2,14.19,10.7,18.05,10.7c1.24,0,4.46,1.92,7.16,4.27c6.92,6.02,13.44,9.07,21.69,10.14  c3.92,0.51,8.15,1.82,9.42,2.91c4.55,3.93,13.46,6.58,22.12,6.58c4.86,0,11.41,1.08,14.56,2.39c4.25,1.78,8.25,2.16,15.5,1.49  c5.37-0.5,11.44-0.76,13.5-0.59c2.05,0.18,7.77,0.32,12.7,0.31c12.38-0.01,22.12-5.49,38.17-21.49  c22.36-22.29,32.33-42.14,30.93-61.58c-1.49-20.83-13.24-35.19-47.05-57.53c-11.7-7.73-24.87-17.34-29.26-21.35  c-8.83-8.07-16.86-21.64-18.17-30.69c-0.74-5.1-0.15-6.83,4.46-13.02c9.55-12.82,26.84-23.73,62.18-39.23  c32.08-14.07,52.51-30.11,61.44-48.25c4.46-9.05,4.86-11.07,4.86-24.1c0-12.82-0.4-14.91-4.1-21.19  c-5.12-8.7-14.04-16.43-25.73-22.27c-4.96-2.48-12.7-6.46-17.2-8.85c-4.5-2.39-10.8-4.78-13.99-5.32  c-3.2-0.54-8.76-2.29-12.37-3.88c-8.96-3.96-25.48-6.05-52.11-6.58C141.68-0.22,132.77,0.26,127.24,1.75z M173.86,2.28  c2.37,0.93,1.86,1.31-2.72,2.06c-5.16,0.84-12.9-0.74-12.9-2.63C158.24,0.53,170.52,0.97,173.86,2.28z M135.08,6.42  c-9.77,5.05-22.88,15.61-35.86,28.87c-8.83,9.03-23.87,19.19-25.69,17.37c-0.94-0.93,13.13-19.4,21.01-27.59  c4.22-4.38,10.41-9.88,13.76-12.22c7.44-5.19,21.94-10.34,29.02-10.31l5.23,0.02L135.08,6.42z M160.95,6.22  c0.26,0.2-4.48,3.1-10.52,6.43c-6.04,3.34-18.58,11.45-27.87,18.02c-9.28,6.58-17.99,12.25-19.35,12.62  c-11.96,3.21-11.89,2.89,2.26-10.73C128.2,10.68,145.69,0.87,155.87,4.3C158.4,5.15,160.69,6.02,160.95,6.22z M192.6,9.79  c0,0.46-3.67,1.92-8.15,3.24l-8.14,2.4l-7.98-8.32l5.79-0.97c3.18-0.53,6.46-1.15,7.28-1.37C183.14,4.3,192.6,8.55,192.6,9.79z   M202.67,6.34c1.84,0.49,2.98,1.49,2.53,2.22c-1.33,2.15-9.09,1.51-11.1-0.92c-1.56-1.88-1.3-2.24,1.68-2.22  C197.73,5.44,200.83,5.85,202.67,6.34z M173.17,15.59c-0.02,2.14-52.74,25.82-56.49,25.37c-3.29-0.39-1.94-1.78,10.29-10.55  c7.75-5.55,19.36-12.77,25.82-16.05l11.73-5.96l4.33,3.08C171.23,13.19,173.18,15.03,173.17,15.59z M219.77,15.12  c4.94,4.16,4.41,4.61-6.49,5.66c-6.28,0.6-7.27,0.25-10.08-3.55c-1.72-2.32-3.12-4.59-3.12-5.03c0-0.44,3.43-0.81,7.63-0.81  C213.66,11.38,216.3,12.2,219.77,15.12z M200.07,16.6c1.93,2.05,3.12,4.11,2.66,4.58c-0.92,0.92-15.91,5.1-18.34,5.11  c-0.82,0-2.63-1.99-4.03-4.44l-2.53-4.45l7.01-2.16C194.61,12.24,196.09,12.37,200.07,16.6z M237.09,18.75  c2.12,1.23,1.72,1.51-2.2,1.55c-3.02,0.03-6.31-1.32-8.96-3.68l-4.19-3.72l6.39,2.18C231.64,16.27,235.67,17.93,237.09,18.75z   M178.36,22.71c1.39,2.12,2.23,4.16,1.87,4.53c-1.99,1.99-47.28,13.12-48.48,11.91c-0.49-0.49,41.4-20.16,43.14-20.26  C175.4,18.87,176.96,20.59,178.36,22.71z M230.68,29.68c4.73,10.47,5.85,19.48,3.81,30.73c-3.83,21.13-11.34,32.26-45.1,66.87  c-14.51,14.87-28.44,30.34-30.97,34.36c-2.53,4.03-4.61,6.75-4.62,6.05c-0.08-3.63,13.9-26.81,28.42-47.12  c28.97-40.52,36.28-63.1,28.51-88.07l-2.81-9.01l4.67-0.59C226.63,21.13,226.85,21.21,230.68,29.68z M246.96,26.13  c9.32,8.07,14.23,25.06,11.5,39.84c-4.61,25.03-18.76,40.61-65.83,72.49c-7.79,5.28-18.83,13.96-24.54,19.3  c-8.92,8.35-9.98,8.99-7.5,4.57c1.58-2.83,15.01-17.61,29.84-32.86c28.66-29.47,33.94-36.09,41.49-52.02  c4.46-9.41,4.76-11.11,4.76-26.48c0-14.3-0.45-17.27-3.44-22.88l-3.45-6.45l7.18,1.03C240.91,23.23,245.41,24.79,246.96,26.13z   M208.44,33.33c1.8,6.19,2.27,11.99,1.74,21.28c-1.17,20.43-9.11,36.42-37.42,75.35c-5.31,7.31-12.51,18.73-15.99,25.39  c-4.65,8.88-6.05,10.71-5.26,6.88c1.56-7.62,7.41-21.94,18.31-44.81c17.76-37.26,22.48-57.84,17.83-77.66  c-1.25-5.34-2.01-9.97-1.67-10.31c0.9-0.89,14.43-4.42,17.42-4.54C205.27,24.85,206.64,27.14,208.44,33.33z M267.13,36.11  c6.32,5.32,11.65,14.73,13.68,24.18c3.56,16.62-4.49,36.35-21.14,51.75c-11.33,10.49-19.45,15.2-50.63,29.39  c-20.99,9.55-34.92,17.12-41.09,22.32c-7.71,6.51-6.48,3.72,1.87-4.22c5.14-4.88,19.93-16.18,32.87-25.1  c42.22-29.1,57.2-48.17,58.42-74.37c0.62-13.18-1-20.27-6.47-28.32l-3.7-5.45l5.74,2.93C259.84,30.83,264.54,33.93,267.13,36.11z   M185.18,38.46c2.73,11.38,1.13,31.03-3.69,45.37c-2.21,6.57-9.29,23.04-15.72,36.59c-13.73,28.91-17.91,41.44-18.96,56.76  c-0.42,6.16-1.63,13.55-2.69,16.43c-5.44,14.81-4.06,30.92,5.24,61.18c7.86,25.6,9.07,31.7,9.11,46.14  c0.03,11-0.51,13.6-4.64,21.97c-4.52,9.19-15.41,20.69-18.58,19.63c-0.82-0.27-3.6-9.19-6.2-19.82  c-7.44-30.48-11.48-36.84-40.8-64.12c-12.93-12.03-23.58-32.46-27.23-52.25c-0.87-4.68-5.18-19.76-9.59-33.5  C40.88,139.97,38.21,126.45,39,109.91c0.6-12.61,0.85-13.39,6.37-20.12c14.11-17.21,41.99-35.44,65.81-43.02  c6.57-2.09,18.34-4.85,26.15-6.13c7.81-1.28,20.92-4.24,29.13-6.57c8.22-2.33,15.38-4.03,15.91-3.76  C182.9,30.57,184.17,34.24,185.18,38.46z M94.2,49.67c-2.77,1.21-5.39,1.84-5.82,1.4c-0.95-0.96,5.47-3.66,8.61-3.63  C98.22,47.46,96.96,48.46,94.2,49.67z M82.05,52.42c0,0.91-8.43,5.29-10.01,5.2c-0.66-0.03,1.16-1.35,4.03-2.92  C81.96,51.47,82.05,51.44,82.05,52.42z M72.34,61.58c-4.11,3.17-8.22,5.34-8.22,4.35c0-0.88,9.2-6.77,10.46-6.7  C74.99,59.25,73.98,60.31,72.34,61.58z M59.64,67.16c0,0.28-1.51,1.8-3.36,3.36l-3.36,2.85l2.85-3.36  C58.43,66.85,59.64,65.97,59.64,67.16z M50.68,79.34c-1.93,2.05-3.88,3.35-4.35,2.89c-0.46-0.46,0.83-2.13,2.87-3.7  C54.3,74.61,54.84,74.9,50.68,79.34z M41.71,85.89c0,0.73-1.85,2.5-4.11,3.95l-4.11,2.63l3.62-3.95  C41.03,84.25,41.71,83.86,41.71,85.89z M38.72,93.99c0,0.25-2.45,2.77-5.45,5.6c-5.54,5.23-5.57,3.44-0.04-2.69  C35.82,94.02,38.72,92.48,38.72,93.99z M36.11,109.59c-0.96,13.61,2.55,31.29,12.23,61.5c4.36,13.62,8.39,27.11,8.94,29.99  c0.86,4.47,0.22,3.81-4.4-4.48c-15.9-28.54-23.48-47.01-26.15-63.7c-2.1-13.17-0.71-21.35,4.77-28c2.45-2.97,4.64-5.39,4.88-5.39  C36.63,99.51,36.51,104.04,36.11,109.59z M22.37,111.87c-1.92,1.82-2.95,2.31-2.3,1.08c2.08-3.94,4.11-6.07,4.96-5.22  C25.48,108.18,24.29,110.05,22.37,111.87z M28.32,150.51c1.94,6.04,7.91,19.38,13.27,29.65c14.68,28.13,19.92,38.95,19.19,39.68  c-0.73,0.73-16.69-19.32-25.57-32.13c-18.7-26.98-25.05-54.37-15.77-67.97l3.59-5.25l0.88,12.52  C24.4,133.9,26.39,144.48,28.32,150.51z M16.87,158.97c4.82,13.14,13.28,26.96,28.55,46.59c17.28,22.22,20.58,29.76,8.62,19.7  c-11.9-10.01-29.53-28.94-35.19-37.8c-10.97-17.19-14.59-38.53-8.88-52.45l2.61-6.38l0.97,11.95  C14.07,147.15,15.57,155.43,16.87,158.97z M11.61,179.41c5.83,12.41,19.75,29.2,35.9,43.26c12.42,10.81,15.8,15.71,12.34,17.85  c-2.26,1.39-26.05-15.85-36.96-26.79C6.57,197.37-0.05,180.5,2.19,160.96l1.14-9.93l2.04,9.7C6.49,166.07,9.3,174.47,11.61,179.41z   M146.41,220.49c0.89,4.52,7.59,20.65,14.89,35.85c15.1,31.45,18.57,42.62,17.46,56.37c-1.42,17.69-11.17,31.19-30.6,42.41  l-7.68,4.43l-2.32-4.48c-1.28-2.47-2.32-5.23-2.32-6.13s3.95-5.3,8.77-9.77c11.52-10.66,15.45-19.53,16.22-36.53  c0.61-13.47-1.24-22.58-11.48-56.76c-3.14-10.47-4.9-19.9-5.29-28.38c-0.33-6.98-0.29-11.02,0.08-8.96  C144.5,210.6,145.52,215.98,146.41,220.49z M156.04,230.5c2.28,3.94,9.68,14.56,16.44,23.6c15.81,21.12,20.61,29.14,24.63,41.08  c4.12,12.23,3.52,26.11-1.58,36.81c-4.87,10.21-20.91,25.39-35.05,33.19l-11.82,6.52l-3.43-4.28c-1.88-2.35-3.43-4.72-3.43-5.26  c0-0.54,3.7-3.07,8.24-5.63c16.86-9.51,26.03-20.58,30.05-36.27c4.2-16.39,0.98-29.51-15.38-62.61  c-12.32-24.92-16.06-34.46-17.52-44.71c-0.93-6.52-0.9-6.49,1.88,1.88C150.63,219.51,153.76,226.56,156.04,230.5z M181.76,248.5  c33.88,33.77,40.23,44.47,38.96,65.64c-1.28,21.36-20.15,45.14-48.44,61.05c-10.78,6.06-12.6,6.23-17.92,1.65l-4.04-3.48  l11.46-6.29c14.98-8.22,30.45-22.84,36.08-34.09c3.75-7.49,4.35-10.41,4.39-21.37c0.05-11.86-0.35-13.53-6.07-25.39  c-3.37-6.98-12.64-21.34-20.61-31.9c-13.33-17.69-24.84-37.01-24.79-41.62c0.01-1.05,1.5,1.12,3.32,4.82  C156.2,221.77,166.29,233.09,181.76,248.5z M165.35,224.04c3.9,4.01,16.83,13.7,28.75,21.54c36.38,23.94,47.88,38.5,47.76,60.48  c-0.1,18.32-8.83,34.98-29.08,55.46c-16.23,16.42-24,20.71-38.84,21.45l-10.46,0.52l8.22-4.8c20.26-11.83,38.81-29.83,46.58-45.19  c8.83-17.46,7-36.7-5.22-54.76c-2.5-3.7-15.37-17.48-28.59-30.62c-14.54-14.45-25.4-26.56-27.48-30.62  c-1.89-3.7-2.38-5.38-1.08-3.73C157.2,215.41,161.45,220.04,165.35,224.04z M67.11,234.86c0,1.23-0.67,1.83-1.49,1.32  c-0.82-0.51-1.49-1.93-1.49-3.16s0.67-1.82,1.49-1.32C66.43,232.2,67.11,233.63,67.11,234.86z M69.03,244.38  c0.64,2.44,0.29,2.58-2.84,1.16c-2.37-1.08-3.57-2.87-3.57-5.35c0-3.57,0.12-3.61,2.84-1.16  C67.02,240.44,68.63,242.85,69.03,244.38z M66.94,248.69c3.36,2.59,3.52,3.41,2.77,14.53c-0.53,7.93-2.88,18.39-7.15,31.95  c-5.55,17.6-6.37,21.97-6.46,34.35c-0.07,9.58,0.68,16.25,2.29,20.54c1.32,3.49,2.22,6.35,2,6.35c-2.16,0-11.88-5.23-15.73-8.47  c-6.99-5.88-10.35-14.3-10.39-25.98c-0.04-12.98,2.87-22.19,14.15-44.69c5.16-10.3,10.24-21.58,11.28-25.06  c1.04-3.48,2.29-6.31,2.78-6.29C62.97,245.94,64.98,247.18,66.94,248.69z M75.32,248.87c1.49,1.64,1.95,2.99,1.03,2.99  c-0.92,0-2.39-1.34-3.27-2.99s-1.34-2.99-1.03-2.99C72.36,245.88,73.84,247.23,75.32,248.87z M80.57,260.13  c4.23,11.12,4.82,23.16,2.2,44.73c-2.5,20.55-2.46,41.56,0.09,49.77c1.05,3.37,0.88,3.43-8.46,2.99  c-9.47-0.45-9.55-0.48-12.52-6.42c-2.44-4.88-2.97-8.85-2.91-21.66c0.07-13.87,0.74-17.76,5.73-33.61  c3.11-9.86,6.41-23.42,7.33-30.13c1.53-11.15,1.92-12.08,4.42-10.74C77.97,255.86,79.82,258.15,80.57,260.13z M93.7,272.48  c6.92,13.04,9.11,22.9,10.7,48.09c0.8,12.73,1.89,25.6,2.42,28.59l0.96,5.44l-8.01,1.02c-4.41,0.56-9.11,1.33-10.45,1.7  c-2.95,0.83-3.79-1.18-5.8-13.71c-1.2-7.48-1-14.13,0.88-29.42c2.37-19.31,2.28-43.73-0.2-51.87c-1.11-3.66-1.07-3.68,1.92-1.04  C87.81,262.76,91.22,267.8,93.7,272.48z M108.02,281.01c9.26,11.37,13.7,21.52,18.88,43.19c2.45,10.24,4.45,19.35,4.45,20.24  c0,1.6-10.41,6.68-17.19,8.38c-3.18,0.8-3.59,0.21-4.98-7.1c-0.84-4.38-1.93-15.7-2.43-25.15c-1.15-21.78-3.07-32.63-7.54-42.76  c-3.27-7.4-3.33-7.92-0.72-6.53C100.05,272.12,104.34,276.5,108.02,281.01z M135.06,354.36c1.24,2.98,2.26,5.6,2.26,5.84  c0,0.51-18.05,6.68-19.54,6.68c-1.1,0-6.46-10.5-5.61-10.98c0.91-0.51,18.41-6.56,19.53-6.76  C132.31,349.03,133.82,351.38,135.06,354.36z M111.83,362.2l2.95,5.79l-5.54,0.92c-11.47,1.89-14.85,1.23-18.3-3.62  c-1.79-2.51-3.01-4.78-2.72-5.04c0.29-0.26,4.57-1.14,9.5-1.96c4.93-0.82,9.45-1.58,10.05-1.68  C108.39,356.5,110.21,359.02,111.83,362.2z M88.09,365.14l2.87,4.72h-3.99c-4.29,0-15.69-4.98-18.13-7.92  c-1.13-1.36,0.66-1.76,7.44-1.66C84.65,360.41,85.4,360.72,88.09,365.14z M144.3,373.18c-0.96,0.61-5,2.2-8.97,3.54l-7.22,2.42  l-4.36-4.18c-2.4-2.29-4.36-4.59-4.36-5.1c0-0.51,4.2-2.32,9.34-4.01l9.34-3.09l3.99,4.65C144.85,370.67,145.52,372.4,144.3,373.18  z M119.29,374.18c2.34,3.29,2.61,4.5,1.12,5.08c-2.59,0.99-12.59-0.99-18.08-3.58l-4.38-2.07l8.11-1.71  c4.46-0.94,8.57-1.79,9.13-1.88C115.75,369.93,117.59,371.8,119.29,374.18z M155.94,381.71c1.26,2.05-9.82,2.84-17.6,1.26  c-3.96-0.8-6.98-1.69-6.7-1.96c0.27-0.27,3.85-1.77,7.95-3.33c7.29-2.77,7.54-2.77,11.51-0.04  C153.33,379.19,155.51,381.02,155.94,381.71z"></path></g></svg>